#N canvas 739 119 755 761 10;
#X obj 33 473 +~;
#X obj 30 174 +;
#X obj 73 174 f;
#X msg 30 150 1;
#X obj 57 227 sel 1;
#X msg 73 150 0;
#X obj 28 346 osc~ 220;
#X obj 31 535 dac~;
#X obj 165 22 loadbang;
#X msg 30 66 1;
#X obj 81 72 r Channel-A;
#X obj 57 251 r Channel-B;
#X obj 210 199 r Channel-C;
#X obj 208 390 line~;
#X obj 302 350 r Channel-D;
#X obj 206 470 *~ 0.3;
#X obj 31 498 *~ 0.2;
#X msg 510 201 0.3;
#X obj 30 124 metro 300;
#X obj 57 289 * 440;
#X msg 165 298 440;
#X msg 174 233 220;
#X obj 199 517 delwrite~ del 1000;
#X obj 213 240 * 600;
#X obj 159 72 hsl 128 15 0 1 0 0 empty empty empty -2 -8 0 10 -262144
-1 -1 0 1;
#X obj 117 174 hsl 128 15 0 1 0 0 empty empty empty -2 -8 0 10 -262144
-1 -1 7200 1;
#X obj 305 204 hsl 128 15 0 1 0 0 empty empty empty -2 -8 0 10 -262144
-1 -1 6100 1;
#X obj 304 324 hsl 128 15 0 1 0 0 empty empty empty -2 -8 0 10 -262144
-1 -1 3700 1;
#X obj 208 434 vd~ del;
#X obj 219 263 + 20;
#X obj 57 203 > 4;
#X obj 30 315 * 150;
#X obj 81 101 * 1000;
#X msg 210 293 \$1 20;
#X msg 96 358 0 300;
#X obj 114 326 t b b;
#X obj 72 403 line~;
#X obj 34 434 *~;
#X obj 154 358 1;
#X connect 0 0 16 0;
#X connect 1 0 2 0;
#X connect 1 0 30 0;
#X connect 1 0 31 0;
#X connect 2 0 1 1;
#X connect 3 0 1 0;
#X connect 4 0 5 0;
#X connect 5 0 2 0;
#X connect 6 0 37 0;
#X connect 8 0 9 0;
#X connect 8 0 17 0;
#X connect 8 0 20 0;
#X connect 8 0 21 0;
#X connect 9 0 18 0;
#X connect 9 0 32 0;
#X connect 10 0 32 0;
#X connect 11 0 19 0;
#X connect 12 0 23 0;
#X connect 13 0 28 0;
#X connect 14 0 15 1;
#X connect 15 0 22 0;
#X connect 16 0 7 0;
#X connect 16 0 7 1;
#X connect 17 0 15 1;
#X connect 18 0 3 0;
#X connect 18 0 35 0;
#X connect 19 0 31 1;
#X connect 20 0 31 1;
#X connect 21 0 33 0;
#X connect 23 0 29 0;
#X connect 24 0 32 0;
#X connect 25 0 19 0;
#X connect 26 0 23 0;
#X connect 27 0 15 1;
#X connect 28 0 0 1;
#X connect 28 0 15 0;
#X connect 29 0 33 0;
#X connect 30 0 4 0;
#X connect 31 0 6 0;
#X connect 32 0 18 1;
#X connect 33 0 13 0;
#X connect 34 0 36 0;
#X connect 35 0 34 0;
#X connect 35 1 38 0;
#X connect 36 0 37 1;
#X connect 37 0 0 0;
#X connect 37 0 22 0;
#X connect 38 0 36 0;
